<?xml version="1.0" encoding="UTF-8"?>
<svg id="Layer_1" xmlns="http://www.w3.org/2000/svg" version="1.1" viewBox="0 0 199.92 284.84">
  <!-- Generator: Adobe Illustrator 29.8.4, SVG Export Plug-In . SVG Version: 2.1.1 Build 6)  -->
  <defs>
    <style>
      .st0 {
        fill: #fff;
      }
    </style>
  </defs>
  <path class="st0" d="M190.85,76.87c-4.22-4.84-6.26-10.94-10.49-16.01-44.06-52.88-130.02,3.09-89.33,67.33,20.69,32.67,57.14,40.22,71.84,79.14,9.32,24.66,6.11,53.07-10.26,73.7-1.91,2.4-4.8,3.81-7.86,3.81H39.1c-7.84,0-12.58-8.58-8.49-15.28,2.13-3.48,3.98-7.14,5.3-11.18,15.46-47.15-15.4-69.25-29.3-108.75C-23.3,64.65,53-23.79,141.39,5.85c21.32,7.15,49.46,32.43,49.46,56.53v14.5h0ZM89.63,174.12c-31.4,4.53-45.04,43.28-33.94,70.41,16.26,39.72,69.84,44.15,90,5.64,19.58-37.4-15.4-81.92-56.06-76.06h0Z"/>
  <path class="st0" d="M165.58,165.07c12.65-2.83,27.72,14.7,29.19,26.37,2.81,22.26-20.6,5.77-27.33-2.67-4.22-5.3-12.77-21.26-1.86-23.7Z"/>
  <path class="st0" d="M184.56,222.06c8.72-2.62,14.82,7.67,15.33,15.25.58,8.56-6.4,31.24-17.8,25.8-9.18-4.38-8.08-37.89,2.47-41.05h0Z"/>
  <path class="st0" d="M115.55,127.06c10.9-3.34,30.93,15.06,29.15,25.06-2.03,11.38-20.04-.91-24.38-5.22-3.6-3.58-13.35-17.21-4.77-19.84Z"/>
  <path class="st0" d="M94.58,79.07c14.41-4.32,19.04,29.12,9.56,31.65-6.15,1.64-13.92-7.02-15.05-12.58s-.96-17.14,5.49-19.08h0Z"/>
  <path class="st0" d="M96.66,191.13c41.34-3.93,49.82,62.73,9.6,67.61-44.83,5.44-51.99-63.58-9.6-67.61h0ZM113.52,239.51c18.05-19.32-14.43-43.31-27.5-21-10.78,18.4,13.39,36.1,27.5,21Z"/>
</svg>